<svg xmlns="http://www.w3.org/2000/svg" width="82" height="20" viewBox="0 0 82 20" fill="none">
  <path
    d="M10.4217 0C4.75315 0 0.173828 4.57932 0.173828 10.2479C0.173828 14.7828 3.10815 18.6285 7.17619 19.9845C7.68747 20.0734 7.88754 19.7622 7.88754 19.4955C7.88754 19.2509 7.86531 18.4507 7.86531 17.5837C5.28666 18.0505 4.61977 16.9613 4.4197 16.3833C4.30855 16.0943 3.79727 15.1829 3.37491 14.9384C3.01923 14.7383 2.50795 14.2715 3.35268 14.2492C4.15295 14.227 4.73092 14.9828 4.93098 15.294C5.86463 16.8501 7.33179 16.4055 7.90977 16.1388C7.99868 15.4719 8.26544 15.0273 8.55443 14.7605C6.26477 14.4938 3.88619 13.6268 3.88619 9.69215C3.88619 8.58067 4.28632 7.64702 4.93098 6.93567C4.81984 6.66891 4.46416 5.62412 5.04213 4.22364C5.04213 4.22364 5.90909 3.95689 7.86531 5.26844C8.6878 5.04614 9.55476 4.91277 10.4217 4.91277C11.2887 4.91277 12.1556 5.02391 12.9781 5.26844C14.9344 3.93466 15.8013 4.22364 15.8013 4.22364C16.3571 5.62412 16.0014 6.69114 15.9125 6.93567C16.5571 7.64702 16.9573 8.55844 16.9573 9.69215C16.9573 13.6268 14.5564 14.4938 12.2668 14.7605C12.6447 15.0717 12.9559 15.6942 12.9559 16.65C12.9559 18.0283 12.9337 19.1175 12.9337 19.4732C12.9337 19.74 13.1337 20.0734 13.645 19.9623C17.6908 18.6063 20.6252 14.7605 20.6252 10.2257C20.6918 4.57932 16.0903 0 10.4217 0Z"
    fill="white" />
  <path
    d="M49.589 14.924H49.5668C49.589 14.924 49.589 14.924 49.589 14.924ZM49.589 14.924C49.4779 14.924 49.1889 14.9907 48.8777 14.9907C47.8996 14.9907 47.5661 14.5461 47.5661 13.9681V10.0779H49.5446C49.6557 10.0779 49.7446 9.98902 49.7446 9.83342V7.72159C49.7446 7.61045 49.6557 7.52153 49.5446 7.52153H47.5661V4.92065C47.5661 4.83173 47.4994 4.76504 47.3883 4.76504H44.7207C44.6096 4.76504 44.5429 4.83173 44.5429 4.92065V7.61045C44.5429 7.61045 43.1869 7.94389 43.0979 7.96612C43.009 7.98835 42.9423 8.07727 42.9423 8.16619V9.85564C42.9423 9.98902 43.0313 10.1002 43.1424 10.1002H44.5206V14.1682C44.5206 17.1914 46.6325 17.5027 48.0774 17.5027C48.7443 17.5027 49.5223 17.3026 49.6557 17.2359C49.7224 17.2137 49.7669 17.1248 49.7669 17.0358V15.1685C49.7891 15.0352 49.7002 14.9462 49.589 14.924ZM78.9767 12.212C78.9767 9.96679 78.0653 9.67781 77.1094 9.76673C76.3758 9.81119 75.7756 10.1891 75.7756 10.1891V14.5461C75.7756 14.5461 76.3758 14.9685 77.2872 14.9907C78.5765 15.0352 78.9767 14.5683 78.9767 12.212ZM81.9999 12.0119C81.9999 16.2578 80.6217 17.4804 78.2209 17.4804C76.198 17.4804 75.0865 16.4579 75.0865 16.4579C75.0865 16.4579 75.042 17.0358 74.9753 17.1025C74.9309 17.1692 74.8864 17.1914 74.7975 17.1914H72.9524C72.8191 17.1914 72.7079 17.1025 72.7079 16.9914L72.7301 3.20896C72.7301 3.09782 72.8191 3.0089 72.9302 3.0089H75.5755C75.6867 3.0089 75.7756 3.09782 75.7756 3.20896L75.7534 7.85497C75.7534 7.85497 76.7759 7.18808 78.2653 7.18808H78.2876C79.7992 7.18808 81.9999 7.74382 81.9999 12.0119ZM71.1741 7.52153H68.5732C68.4398 7.52153 68.3731 7.61045 68.3731 7.76605V14.5017C68.3731 14.5017 67.684 14.9907 66.7503 14.9907C65.8167 14.9907 65.5499 14.5683 65.5499 13.6347V7.74382C65.5499 7.63267 65.461 7.54376 65.3499 7.54376H62.7045C62.5934 7.54376 62.5045 7.63267 62.5045 7.74382V14.0793C62.5045 16.8135 64.0383 17.4804 66.1279 17.4804C67.8618 17.4804 69.2623 16.5246 69.2623 16.5246C69.2623 16.5246 69.329 17.0136 69.3512 17.0803C69.3735 17.147 69.4624 17.1914 69.5513 17.1914H71.2185C71.3519 17.1914 71.4186 17.1025 71.4186 16.9914L71.4408 7.72159C71.4186 7.63268 71.3074 7.52153 71.1741 7.52153ZM41.7864 7.52153H39.1411C39.0299 7.52153 38.941 7.63268 38.941 7.76605V16.858C38.941 17.1025 39.0966 17.1914 39.3189 17.1914H41.6975C41.942 17.1914 42.0087 17.0803 42.0087 16.858V7.72159C42.0087 7.61045 41.8975 7.52153 41.7864 7.52153ZM40.4971 3.32011C39.5412 3.32011 38.7854 4.07592 38.7854 5.0318C38.7854 5.98768 39.5412 6.74349 40.4971 6.74349C41.4307 6.74349 42.1865 5.98768 42.1865 5.0318C42.1865 4.07592 41.4307 3.32011 40.4971 3.32011ZM60.9484 3.0089H58.3253C58.2141 3.0089 58.1252 3.09782 58.1252 3.20896V8.27734H54.0127V3.23119C54.0127 3.12004 53.9238 3.03113 53.8127 3.03113H51.1673C51.0562 3.03113 50.9673 3.12004 50.9673 3.23119V17.0136C50.9673 17.1248 51.0784 17.2137 51.1673 17.2137H53.8127C53.9238 17.2137 54.0127 17.1248 54.0127 17.0136V11.1005H58.1252L58.103 16.9914C58.103 17.1025 58.1919 17.1914 58.3031 17.1914H60.9484C61.0595 17.1914 61.1485 17.1025 61.1485 16.9914V3.20896C61.1485 3.12004 61.0595 3.0089 60.9484 3.0089ZM37.5405 9.12207V16.2356C37.5405 16.28 37.5183 16.3689 37.4738 16.3912C37.4738 16.3912 35.9177 17.5027 33.3613 17.5027C30.2714 17.5027 26.6257 16.5246 26.6257 10.1669C26.6257 3.78694 29.8268 2.47538 32.939 2.49761C35.651 2.49761 36.7402 3.09782 36.8959 3.20896C36.9403 3.27565 36.9625 3.32011 36.9625 3.3868L36.4513 5.58754C36.4513 5.69869 36.3401 5.83207 36.2067 5.78761C35.7621 5.65423 35.0952 5.38748 33.5169 5.38748C31.6941 5.38748 29.7379 5.89876 29.7379 10.0113C29.7379 14.1237 31.6052 14.5906 32.939 14.5906C34.0727 14.5906 34.495 14.4572 34.495 14.4572V11.6118H32.6722C32.5388 11.6118 32.4277 11.5229 32.4277 11.4117V9.12207C32.4277 9.01092 32.5166 8.922 32.6722 8.922H37.3182C37.4516 8.89977 37.5405 9.01092 37.5405 9.12207Z"
    fill="white" />
</svg>